<svg width="400" height="300" viewBox="0 0 400 300" xmlns="http://www.w3.org/2000/svg">
  <rect width="400" height="300" fill="#fff7ed"/>
  <circle cx="200" cy="150" r="100" fill="#ffedd5" opacity="0.5"/>
  
  <!-- Open Book -->
  <g transform="translate(100, 100)">
    <path d="M0 100 Q50 120 100 100 Q150 120 200 100 V20 Q150 40 100 20 Q50 40 0 20 Z" fill="#fdba74"/>
    <path d="M100 20 V100" stroke="#ea580c" stroke-width="2"/>
    <!-- Lines -->
    <path d="M20 40 H80" stroke="#fff" stroke-width="2" opacity="0.6"/>
    <path d="M20 60 H80" stroke="#fff" stroke-width="2" opacity="0.6"/>
    <path d="M20 80 H60" stroke="#fff" stroke-width="2" opacity="0.6"/>
    <path d="M120 40 H180" stroke="#fff" stroke-width="2" opacity="0.6"/>
    <path d="M120 60 H180" stroke="#fff" stroke-width="2" opacity="0.6"/>
    <path d="M120 80 H160" stroke="#fff" stroke-width="2" opacity="0.6"/>
  </g>
  
  <!-- Heart -->
  <path d="M300 50 C320 30, 360 30, 380 50 C400 70, 400 110, 380 130 L300 200 L220 130 C200 110, 200 70, 220 50 C240 30, 280 30, 300 50 Z" 
        fill="#fda4af" opacity="0.3" transform="scale(0.3) translate(600, 100)"/>
</svg>